<svg width="108" height="99" viewBox="0 0 108 99" fill="none" xmlns="http://www.w3.org/2000/svg">
<path d="M0 55.9397L7.69812 39.517H30.2793L22.0679 55.9397H0Z" fill="#4958E9"/>
<path d="M24.634 55.9397L33.3585 39.517H88.2718C82.9344 52.6551 72.0202 55.9397 67.2302 55.9397H24.634Z" fill="#4958E9"/>
<path d="M53.3134 35.2263C63.9216 31.7697 69.0373 23.4775 70.3095 19.5019H16.4227L8.72453 35.9246H48.208C49.9354 35.9246 51.6711 35.7614 53.3134 35.2263Z" fill="#4958E9"/>
<path d="M92.8906 19.5019H72.3623C69.8989 28.5344 61.4139 34.2139 56.9661 35.9246H89.2982C96.6884 24.8393 96.4831 19.5019 92.8906 19.5019Z" fill="#4958E9"/>
<path d="M100.589 16.4227H75.4416C75.4416 5.33736 69.9673 0.855347 67.2302 0H107.774L100.589 16.4227Z" fill="#4958E9"/>
<path d="M65.2588 1.2634C70.5411 4.53294 72.217 12.3539 72.3623 16.4227H17.4491C19.3744 8.72114 25.3964 3.86215 29.977 1.45361C32.1384 0.317123 34.6017 0 37.0437 0H58.6782C60.952 0 63.3254 0.0667073 65.2588 1.2634Z" fill="#4958E9"/>
<path d="M5.16687 91.9863V71.6447H13.7906C14.7265 71.6447 15.586 71.8357 16.3691 72.2177C17.1522 72.5997 17.8302 73.1154 18.4033 73.7648C18.9954 74.4142 19.4538 75.14 19.7785 75.9422C20.1032 76.7444 20.2655 77.5657 20.2655 78.4061C20.2655 79.5521 19.9981 80.6409 19.4633 81.6723C18.9285 82.7037 18.1931 83.5441 17.2572 84.1935C16.3213 84.8429 15.2135 85.1676 13.9338 85.1676H9.12059V91.9863H5.16687ZM9.12059 81.7009H13.7046C14.1821 81.7009 14.6119 81.5672 14.9939 81.2998C15.3759 81.0324 15.6815 80.6504 15.9107 80.1538C16.1399 79.6381 16.2545 79.0555 16.2545 78.4061C16.2545 77.6994 16.1208 77.0978 15.8534 76.6012C15.6051 76.1046 15.2708 75.7321 14.8506 75.4838C14.4495 75.2355 14.0102 75.1114 13.5327 75.1114H9.12059V81.7009ZM21.7041 87.5456C21.7041 86.5714 21.9715 85.7215 22.5063 84.9957C23.0602 84.2508 23.8242 83.6778 24.7983 83.2767C25.7724 82.8756 26.8897 82.675 28.1504 82.675C28.7807 82.675 29.4205 82.7228 30.0699 82.8183C30.7193 82.9138 31.2828 83.0666 31.7603 83.2767V82.4745C31.7603 81.5195 31.4738 80.7841 30.9008 80.2684C30.3469 79.7527 29.516 79.4948 28.4082 79.4948C27.5869 79.4948 26.8038 79.6381 26.0589 79.9246C25.314 80.2111 24.5309 80.6313 23.7096 81.1852L22.4776 78.664C23.4708 78.0146 24.4831 77.5275 25.5145 77.2028C26.565 76.8781 27.6633 76.7158 28.8093 76.7158C30.9485 76.7158 32.6102 77.2506 33.7944 78.3202C34.9977 79.3898 35.5994 80.9178 35.5994 82.9042V87.6888C35.5994 88.0899 35.6663 88.3764 35.8 88.5483C35.9528 88.7202 36.1915 88.8253 36.5162 88.8635V91.9863C36.1724 92.0436 35.8573 92.0914 35.5708 92.1296C35.3033 92.1678 35.0741 92.1869 34.8831 92.1869C34.1191 92.1869 33.5366 92.015 33.1355 91.6712C32.7535 91.3274 32.5147 90.9072 32.4192 90.4106L32.3333 89.637C31.6839 90.4774 30.8721 91.1268 29.898 91.5852C28.9239 92.0436 27.9307 92.2728 26.9184 92.2728C25.9252 92.2728 25.0275 92.0723 24.2253 91.6712C23.4422 91.251 22.8214 90.6875 22.363 89.9808C21.9237 89.255 21.7041 88.4433 21.7041 87.5456ZM31.044 88.3191C31.2541 88.0899 31.426 87.8607 31.5597 87.6315C31.6934 87.4023 31.7603 87.1922 31.7603 87.0012V85.4827C31.3019 85.2917 30.8053 85.1485 30.2705 85.053C29.7357 84.9384 29.2295 84.8811 28.752 84.8811C27.7588 84.8811 26.9375 85.1007 26.2881 85.54C25.6578 85.9602 25.3426 86.5237 25.3426 87.2304C25.3426 87.6124 25.4477 87.9753 25.6578 88.3191C25.8679 88.6629 26.1735 88.9399 26.5746 89.15C26.9757 89.3601 27.4532 89.4651 28.0071 89.4651C28.5801 89.4651 29.1436 89.3601 29.6975 89.15C30.2514 88.9208 30.7002 88.6438 31.044 88.3191ZM45.0029 92.2728C43.7232 92.2728 42.5008 92.0627 41.3357 91.6425C40.1706 91.2223 39.1678 90.6016 38.3274 89.7803L39.7026 87.2877C40.6003 88.0135 41.479 88.5483 42.3385 88.8921C43.2171 89.2359 44.0575 89.4078 44.8597 89.4078C45.6046 89.4078 46.1967 89.2741 46.636 89.0067C47.0944 88.7393 47.3236 88.3382 47.3236 87.8034C47.3236 87.4405 47.1994 87.1635 46.9511 86.9725C46.7028 86.7624 46.3399 86.581 45.8624 86.4282C45.404 86.2754 44.8406 86.1035 44.1721 85.9125C43.0643 85.5496 42.1379 85.1962 41.393 84.8524C40.6481 84.5086 40.0846 84.0789 39.7026 83.5632C39.3397 83.0284 39.1583 82.3503 39.1583 81.529C39.1583 80.5358 39.4066 79.6858 39.9032 78.9791C40.4189 78.2533 41.1256 77.6899 42.0233 77.2888C42.9401 76.8877 44.0097 76.6871 45.2321 76.6871C46.3017 76.6871 47.314 76.859 48.269 77.2028C49.2241 77.5275 50.0931 78.0623 50.8762 78.8072L49.3291 81.2425C48.5651 80.6504 47.8393 80.2207 47.1517 79.9533C46.4641 79.6667 45.7669 79.5235 45.0602 79.5235C44.6591 79.5235 44.2771 79.5712 43.9142 79.6668C43.5704 79.7623 43.2839 79.9246 43.0547 80.1538C42.8446 80.3639 42.7396 80.6695 42.7396 81.0706C42.7396 81.4335 42.8351 81.72 43.0261 81.9301C43.2362 82.1211 43.5418 82.293 43.9429 82.4458C44.3631 82.5986 44.8692 82.7705 45.4613 82.9615C46.6646 83.3053 47.6769 83.6587 48.4982 84.0216C49.3387 84.3845 49.969 84.8333 50.3892 85.3681C50.8094 85.8838 51.0195 86.6001 51.0195 87.5169C51.0195 89.0067 50.4751 90.1718 49.3864 91.0122C48.2977 91.8526 46.8365 92.2728 45.0029 92.2728ZM52.8858 87.5456C52.8858 86.5714 53.1532 85.7215 53.688 84.9957C54.2419 84.2508 55.0059 83.6778 55.98 83.2767C56.9541 82.8756 58.0714 82.675 59.332 82.675C59.9624 82.675 60.6022 82.7228 61.2516 82.8183C61.901 82.9138 62.4645 83.0666 62.942 83.2767V82.4745C62.942 81.5195 62.6555 80.7841 62.0825 80.2684C61.5286 79.7527 60.6977 79.4948 59.5899 79.4948C58.7686 79.4948 57.9855 79.6381 57.2406 79.9246C56.4957 80.2111 55.7126 80.6313 54.8913 81.1852L53.6593 78.664C54.6525 78.0146 55.6648 77.5275 56.6962 77.2028C57.7467 76.8781 58.845 76.7158 59.991 76.7158C62.1302 76.7158 63.7919 77.2506 64.9761 78.3202C66.1794 79.3898 66.7811 80.9178 66.7811 82.9042V87.6888C66.7811 88.0899 66.8479 88.3764 66.9816 88.5483C67.1344 88.7202 67.3732 88.8253 67.6979 88.8635V91.9863C67.3541 92.0436 67.0389 92.0914 66.7524 92.1296C66.485 92.1678 66.2558 92.1869 66.0648 92.1869C65.3008 92.1869 64.7183 92.015 64.3172 91.6712C63.9352 91.3274 63.6964 90.9072 63.6009 90.4106L63.515 89.637C62.8656 90.4774 62.0538 91.1268 61.0797 91.5852C60.1056 92.0436 59.1124 92.2728 58.1001 92.2728C57.1069 92.2728 56.2092 92.0723 55.407 91.6712C54.6239 91.251 54.0031 90.6875 53.5447 89.9808C53.1054 89.255 52.8858 88.4433 52.8858 87.5456ZM62.2257 88.3191C62.4358 88.0899 62.6077 87.8607 62.7414 87.6315C62.8751 87.4023 62.942 87.1922 62.942 87.0012V85.4827C62.4836 85.2917 61.987 85.1485 61.4522 85.053C60.9174 84.9384 60.4112 84.8811 59.9337 84.8811C58.9405 84.8811 58.1192 85.1007 57.4698 85.54C56.8395 85.9602 56.5243 86.5237 56.5243 87.2304C56.5243 87.6124 56.6294 87.9753 56.8395 88.3191C57.0496 88.6629 57.3552 88.9399 57.7563 89.15C58.1574 89.3601 58.6349 89.4651 59.1888 89.4651C59.7618 89.4651 60.3253 89.3601 60.8792 89.15C61.4331 88.9208 61.8819 88.6438 62.2257 88.3191ZM79.6513 92.2728C78.4862 92.2728 77.4548 92.015 76.5571 91.4993C75.6785 90.9645 74.9909 90.2482 74.4943 89.3505V98.0888H70.6551V76.9736H74.0072V79.5521C74.5802 78.6735 75.306 77.9859 76.1846 77.4893C77.0632 76.9736 78.066 76.7158 79.1929 76.7158C80.2052 76.7158 81.1316 76.9163 81.972 77.3174C82.8315 77.7185 83.5764 78.282 84.2067 79.0078C84.837 79.7145 85.324 80.5358 85.6678 81.4717C86.0307 82.3885 86.2122 83.3817 86.2122 84.4513C86.2122 85.9029 85.9257 87.2208 85.3527 88.4051C84.7988 89.5893 84.0252 90.5347 83.032 91.2414C82.0579 91.929 80.931 92.2728 79.6513 92.2728ZM78.362 89.0067C78.9541 89.0067 79.4889 88.8826 79.9664 88.6343C80.444 88.386 80.8546 88.0517 81.1984 87.6315C81.5613 87.1922 81.8287 86.7051 82.0006 86.1703C82.1916 85.6164 82.2871 85.0434 82.2871 84.4513C82.2871 83.821 82.1821 83.2385 81.972 82.7037C81.781 82.1689 81.4945 81.7009 81.1125 81.2998C80.7305 80.8796 80.2816 80.5549 79.7659 80.3257C79.2693 80.0965 78.7249 79.9819 78.1328 79.9819C77.7699 79.9819 77.3975 80.0488 77.0155 80.1825C76.6526 80.2971 76.2992 80.469 75.9554 80.6982C75.6116 80.9274 75.306 81.1948 75.0386 81.5004C74.7903 81.806 74.6089 82.1402 74.4943 82.5031V86.0271C74.7235 86.581 75.0291 87.0871 75.4111 87.5456C75.8122 88.004 76.2706 88.3669 76.7863 88.6343C77.302 88.8826 77.8272 89.0067 78.362 89.0067ZM96.0332 92.2728C94.8107 92.2728 93.7125 92.0723 92.7384 91.6712C91.7643 91.251 90.9334 90.678 90.2458 89.9522C89.5773 89.2264 89.0616 88.3955 88.6987 87.4596C88.3358 86.5237 88.1544 85.54 88.1544 84.5086C88.1544 83.4581 88.3358 82.4649 88.6987 81.529C89.0616 80.5931 89.5773 79.7623 90.2458 79.0364C90.9334 78.3106 91.7643 77.7472 92.7384 77.3461C93.7125 76.9259 94.8107 76.7158 96.0332 76.7158C97.2556 76.7158 98.3443 76.9259 99.2993 77.3461C100.273 77.7472 101.104 78.3106 101.792 79.0364C102.479 79.7623 102.995 80.5931 103.339 81.529C103.702 82.4649 103.883 83.4581 103.883 84.5086C103.883 85.54 103.702 86.5237 103.339 87.4596C102.995 88.3955 102.479 89.2264 101.792 89.9522C101.123 90.678 100.302 91.251 99.3279 91.6712C98.3538 92.0723 97.2556 92.2728 96.0332 92.2728ZM92.1081 84.5086C92.1081 85.3872 92.28 86.1703 92.6238 86.8579C92.9676 87.5264 93.4355 88.0517 94.0276 88.4337C94.6197 88.8157 95.2883 89.0067 96.0332 89.0067C96.759 89.0067 97.4179 88.8157 98.01 88.4337C98.6021 88.0326 99.0701 87.4978 99.4139 86.8293C99.7768 86.1417 99.9582 85.3586 99.9582 84.48C99.9582 83.6205 99.7768 82.8469 99.4139 82.1593C99.0701 81.4717 98.6021 80.9369 98.01 80.5549C97.4179 80.1729 96.759 79.9819 96.0332 79.9819C95.2883 79.9819 94.6197 80.1825 94.0276 80.5836C93.4355 80.9656 92.9676 81.5004 92.6238 82.188C92.28 82.8565 92.1081 83.63 92.1081 84.5086Z" fill="#4958E9"/>
</svg>
