<?xml version="1.0" encoding="UTF-8"?>
<svg id="Layer_1" xmlns="http://www.w3.org/2000/svg" width="61" height="50" version="1.1" viewBox="0 0 61 50">
  <!-- Generator: Adobe Illustrator 29.6.1, SVG Export Plug-In . SVG Version: 2.1.1 Build 9)  -->
  <rect x="-.08" width="50" height="50" rx="15" ry="15" fill="#1444ef"/>
  <path d="M14.14,42.12V8.04h14.45c1.57,0,3.02.33,4.34.98,1.33.66,2.47,1.52,3.43,2.59.96,1.07,1.71,2.29,2.26,3.65.54,1.36.82,2.73.82,4.1s-.26,2.84-.77,4.2c-.51,1.36-1.23,2.57-2.16,3.62-.93,1.06-2.05,1.9-3.36,2.54-1.31.64-2.75.96-4.32.96h-8.06v11.42h-6.62ZM20.77,24.89h7.68c1.22,0,2.23-.5,3.05-1.49.82-.99,1.22-2.34,1.22-4.03,0-.86-.13-1.64-.38-2.33-.26-.69-.59-1.27-1.01-1.75-.42-.48-.9-.84-1.46-1.08-.56-.24-1.13-.36-1.7-.36h-7.39v11.04Z" fill="#fff"/>
</svg>