<?xml version="1.0" encoding="UTF-8"?>
<svg id="Layer_1" xmlns="http://www.w3.org/2000/svg" width="186.23" height="49.39" version="1.1" viewBox="0 0 186.23 49.39">
  <!-- Generator: Adobe Illustrator 29.6.1, SVG Export Plug-In . SVG Version: 2.1.1 Build 9)  -->
  <rect x="2.41" y="-.41" width="50" height="50" rx="15" ry="15" fill="#1444ef"/>
  <g>
    <path d="M63.61,39.25c-.91,0-1.76-.15-2.56-.45s-1.48-.72-2.05-1.26c-.58-.54-1.03-1.17-1.35-1.89-.32-.72-.49-1.51-.49-2.38s.2-1.71.59-2.47.95-1.4,1.66-1.93c.71-.53,1.55-.94,2.54-1.24.98-.3,2.06-.45,3.24-.45.84,0,1.66.07,2.47.22.8.14,1.52.35,2.14.61v-1.08c0-1.25-.35-2.21-1.06-2.88-.71-.67-1.76-1.01-3.15-1.01-1.01,0-1.99.18-2.95.54-.96.36-1.94.89-2.95,1.58l-1.48-3.06c2.42-1.61,5.04-2.41,7.85-2.41s4.82.67,6.32,2,2.25,3.26,2.25,5.78v5.87c0,.5.09.86.27,1.08.18.22.47.34.88.36v4.1c-.82.17-1.52.25-2.12.25-.91,0-1.61-.2-2.11-.61-.49-.41-.8-.95-.92-1.62l-.11-1.04c-.84,1.1-1.86,1.94-3.06,2.52s-2.48.86-3.85.86ZM64.98,35.73c.82,0,1.59-.14,2.32-.43.73-.29,1.3-.67,1.71-1.15.53-.41.79-.86.79-1.37v-2.16c-.58-.22-1.2-.39-1.87-.52-.67-.13-1.32-.2-1.94-.2-1.25,0-2.27.28-3.06.85-.79.56-1.19,1.28-1.19,2.14,0,.82.31,1.49.94,2.03.62.54,1.39.81,2.3.81Z"/>
    <path d="M86.26,39.25c-1.58,0-3.13-.25-4.64-.76-1.51-.5-2.81-1.22-3.89-2.16l1.8-3.02c1.15.82,2.27,1.43,3.37,1.85,1.09.42,2.18.63,3.26.63.96,0,1.72-.18,2.27-.54.55-.36.83-.88.83-1.55s-.32-1.16-.97-1.48c-.65-.31-1.7-.67-3.17-1.08-1.22-.34-2.27-.66-3.13-.97-.86-.31-1.56-.67-2.09-1.06-.53-.4-.91-.85-1.15-1.37-.24-.52-.36-1.13-.36-1.85,0-.96.19-1.82.56-2.59.37-.77.89-1.42,1.57-1.96.67-.54,1.46-.95,2.36-1.24s1.88-.43,2.93-.43c1.42,0,2.74.2,3.98.61s2.37,1.07,3.4,1.98l-1.94,2.92c-.96-.72-1.89-1.25-2.79-1.58s-1.79-.5-2.68-.5c-.82,0-1.5.17-2.05.5-.55.34-.83.88-.83,1.62,0,.34.07.61.2.83.13.22.34.41.63.58s.67.33,1.13.49c.47.16,1.05.32,1.75.49,1.3.34,2.41.67,3.33,1.01s1.68.72,2.27,1.15c.59.43,1.02.93,1.3,1.49.28.56.41,1.24.41,2.03,0,1.85-.68,3.31-2.05,4.37-1.37,1.07-3.23,1.6-5.58,1.6Z"/>
    <path d="M97.02,17.4v-4.79h4.82v4.79h-4.82ZM97.02,38.89v-18.86h4.82v18.86h-4.82Z"/>
    <path d="M113.33,39.25c-1.58,0-3.13-.25-4.64-.76-1.51-.5-2.81-1.22-3.89-2.16l1.8-3.02c1.15.82,2.27,1.43,3.37,1.85,1.09.42,2.18.63,3.26.63.96,0,1.72-.18,2.27-.54.55-.36.83-.88.83-1.55s-.32-1.16-.97-1.48c-.65-.31-1.7-.67-3.17-1.08-1.22-.34-2.27-.66-3.13-.97s-1.56-.67-2.09-1.06c-.53-.4-.91-.85-1.15-1.37-.24-.52-.36-1.13-.36-1.85,0-.96.19-1.82.56-2.59s.89-1.42,1.57-1.96c.67-.54,1.46-.95,2.36-1.24.9-.29,1.88-.43,2.93-.43,1.42,0,2.74.2,3.98.61,1.24.41,2.37,1.07,3.4,1.98l-1.94,2.92c-.96-.72-1.89-1.25-2.79-1.58s-1.79-.5-2.68-.5c-.82,0-1.5.17-2.05.5s-.83.88-.83,1.62c0,.34.07.61.2.83s.34.41.63.58c.29.17.67.33,1.13.49.47.16,1.05.32,1.75.49,1.3.34,2.41.67,3.33,1.01s1.68.72,2.27,1.15c.59.43,1.02.93,1.3,1.49.28.56.41,1.24.41,2.03,0,1.85-.68,3.31-2.05,4.37-1.37,1.07-3.23,1.6-5.58,1.6Z"/>
    <path d="M135.4,37.92c-.65.29-1.44.58-2.38.86s-1.92.43-2.95.43c-.67,0-1.3-.08-1.89-.25-.59-.17-1.1-.44-1.55-.81-.44-.37-.8-.85-1.06-1.44-.26-.59-.4-1.3-.4-2.14v-10.84h-2.48v-3.71h2.48v-6.12h4.82v6.12h3.96v3.71h-3.96v9.22c0,.67.17,1.15.52,1.42.35.28.77.41,1.28.41s1-.08,1.48-.25c.48-.17.86-.31,1.15-.43l.97,3.82Z"/>
    <path d="M143.06,39.25c-.91,0-1.76-.15-2.56-.45s-1.48-.72-2.05-1.26c-.58-.54-1.03-1.17-1.35-1.89-.32-.72-.49-1.51-.49-2.38s.2-1.71.59-2.47c.4-.76.95-1.4,1.66-1.93.71-.53,1.55-.94,2.54-1.24.98-.3,2.06-.45,3.24-.45.84,0,1.66.07,2.47.22.8.14,1.52.35,2.14.61v-1.08c0-1.25-.35-2.21-1.06-2.88-.71-.67-1.76-1.01-3.15-1.01-1.01,0-1.99.18-2.95.54-.96.36-1.94.89-2.95,1.58l-1.48-3.06c2.42-1.61,5.04-2.41,7.85-2.41s4.82.67,6.32,2c1.5,1.33,2.25,3.26,2.25,5.78v5.87c0,.5.09.86.27,1.08s.47.34.88.36v4.1c-.82.17-1.52.25-2.12.25-.91,0-1.61-.2-2.11-.61-.49-.41-.8-.95-.92-1.62l-.11-1.04c-.84,1.1-1.86,1.94-3.06,2.52-1.2.58-2.48.86-3.85.86ZM144.43,35.73c.82,0,1.59-.14,2.32-.43.73-.29,1.3-.67,1.71-1.15.53-.41.79-.86.79-1.37v-2.16c-.58-.22-1.2-.39-1.87-.52s-1.32-.2-1.94-.2c-1.25,0-2.27.28-3.06.85-.79.56-1.19,1.28-1.19,2.14,0,.82.31,1.49.94,2.03.62.54,1.39.81,2.3.81Z"/>
    <path d="M176.11,38.89h-4.82v-10.58c0-1.51-.26-2.62-.79-3.31-.53-.7-1.26-1.04-2.2-1.04-.48,0-.97.1-1.48.29-.5.19-.98.46-1.42.81-.44.35-.85.76-1.21,1.24-.36.48-.62,1.01-.79,1.58v11.02h-4.82v-18.86h4.36v3.49c.7-1.2,1.7-2.14,3.02-2.81,1.32-.67,2.81-1.01,4.46-1.01,1.18,0,2.14.22,2.88.65s1.32,1,1.73,1.69c.41.7.69,1.49.85,2.38.16.89.23,1.79.23,2.7v11.77Z"/>
    <path d="M180.22,38.89v-5.18h3.96v5.18h-3.96Z"/>
  </g>
  <path d="M19.26,35.71V10.15h10.84c1.18,0,2.26.25,3.26.74,1,.49,1.85,1.14,2.57,1.94.72.8,1.28,1.72,1.69,2.74.41,1.02.61,2.05.61,3.08s-.19,2.13-.58,3.15c-.38,1.02-.92,1.93-1.62,2.72-.7.79-1.54,1.43-2.52,1.91-.98.48-2.06.72-3.24.72h-6.05v8.57h-4.97ZM24.22,22.79h5.76c.91,0,1.67-.37,2.29-1.12.61-.74.92-1.75.92-3.02,0-.65-.1-1.23-.29-1.75-.19-.52-.44-.95-.76-1.31s-.68-.63-1.1-.81c-.42-.18-.85-.27-1.28-.27h-5.54v8.28Z" fill="#fff"/>
</svg>